# xmcd CD database file
#
# Track frame offsets:
#	150
#	18564
#	38516
#	53428
#	66551
#	78446
#	91656
#	110906
#	123076
#	139743
#	165158
#	177823
#	193730
#	208641
#
# Disc length: 3062 seconds
#
# Revision: 0
# Processed by: cddbd v1.4PL0 Copyright (c) Steve Scherf et al.
# Submitted via: CDex 1.40Beta9
#
DISCID=b20bf40e
DTITLE=BluesOz - BluesOz CD 2001
DYEAR=2001
DGENRE=Blues
TTITLE0=Kate Meehan - Pocket Full of Blues
TTITLE1=Pete Cornelius and the Devilles - Nearly Caused Me The Blues
TTITLE2=Janet Levy with Sneaky Pete - Neighbour, Neighbour
TTITLE3=Jus' Jump - Jump Children
TTITLE4=Lemon Squeezin Daddies - Shake n' Shimmy
TTITLE5='65 Mustang - Blue Feeling
TTITLE6=The Bellhops - Red Eyes
TTITLE7=Cold Comfort - Wait On Time
TTITLE8=The Groove Kings - The $64,000 Question
TTITLE9=John Hood - Rice
TTITLE10=White With Nunn - About Time
TTITLE11=Dirty Work - Humbuggin' Me
TTITLE12=Annie B with Silver Beaver - The One I Choose
TTITLE13=The Stingers - Bowling Club Blues
EXTD=YEAR: 2001 ID3G: 0
EXTT0=
EXTT1=
EXTT2=
EXTT3=
EXTT4=
EXTT5=
EXTT6=
EXTT7=
EXTT8=
EXTT9=
EXTT10=
EXTT11=
EXTT12=
EXTT13=
PLAYORDER=
